M48
; DRILL file {KiCad (6.0.10)} date Fri Mar 31 21:51:57 2023
; FORMAT={-:-/ absolute / metric / decimal}
; #@! TF.CreationDate,2023-03-31T21:51:57+03:00
; #@! TF.GenerationSoftware,Kicad,Pcbnew,(6.0.10)
; #@! TF.FileFunction,Plated,1,2,PTH
FMAT,2
METRIC
; #@! TA.AperFunction,Plated,PTH,ViaDrill
T1C0.400
; #@! TA.AperFunction,Plated,PTH,ComponentDrill
T2C0.800
; #@! TA.AperFunction,Plated,PTH,ComponentDrill
T3C1.100
%
G90
G05
T1
X94.701Y-68.641
X100.03Y-62.027
X101.5Y-60.2
X105.231Y-98.269
X105.958Y-100.158
X105.995Y-68.601
X106.725Y-95.179
X112.838Y-60.835
X113.691Y-74.305
X114.248Y-57.048
X114.32Y-101.16
X114.641Y-98.2
X114.8Y-55.3
X115.603Y-96.195
X116.23Y-79.718
X118.076Y-56.676
X118.747Y-93.327
X120.029Y-61.482
X121.476Y-92.827
X122.612Y-57.688
X123.347Y-89.702
X123.85Y-75.532
X125.686Y-56.915
X126.295Y-61.991
X127.9Y-96.0
X135.1Y-56.5
X135.886Y-63.35
X137.229Y-79.544
X141.957Y-76.009
X146.099Y-66.288
X147.256Y-97.383
X147.512Y-57.823
X147.512Y-60.576
X147.987Y-69.128
X149.868Y-84.209
X151.8Y-61.5
X152.768Y-67.024
X155.416Y-81.955
X156.611Y-100.7
T2
X98.35Y-71.9
X98.35Y-82.06
X99.25Y-84.48
X99.25Y-92.1
X101.79Y-84.48
X101.79Y-92.1
X102.65Y-71.9
X102.65Y-82.06
X109.2Y-75.2
X109.2Y-80.2
X116.23Y-70.575
X116.23Y-85.815
X118.77Y-70.575
X118.77Y-85.815
X121.31Y-70.575
X121.31Y-85.815
X123.85Y-70.575
X123.85Y-85.815
X126.39Y-70.575
X126.39Y-85.815
X128.93Y-70.575
X128.93Y-85.815
X131.47Y-70.575
X131.47Y-85.815
X134.01Y-70.575
X134.01Y-85.815
X136.55Y-70.575
X136.55Y-85.815
X139.09Y-70.575
X139.09Y-85.815
X141.63Y-70.575
X141.63Y-85.815
X144.17Y-70.575
X144.17Y-85.815
X146.71Y-70.575
X146.71Y-85.815
X149.25Y-70.575
X149.25Y-85.815
X154.3Y-72.92
X154.3Y-83.08
X159.4Y-69.675
X159.4Y-72.215
X159.4Y-74.755
X159.4Y-77.295
X159.4Y-79.835
X159.4Y-82.375
X159.4Y-84.915
X160.8Y-90.1
X165.8Y-90.1
X167.02Y-69.675
X167.02Y-72.215
X167.02Y-74.755
X167.02Y-77.295
X167.02Y-79.835
X167.02Y-82.375
X167.02Y-84.915
T3
X97.25Y-63.35
X97.25Y-67.85
X103.75Y-63.35
X103.75Y-67.85
T0
M30
