%TF.GenerationSoftware,KiCad,Pcbnew,(6.0.10)*%
%TF.CreationDate,2023-03-31T21:51:58+03:00*%
%TF.ProjectId,zxcart,7a786361-7274-42e6-9b69-6361645f7063,rev?*%
%TF.SameCoordinates,Original*%
%TF.FileFunction,Drillmap*%
%TF.FilePolarity,Positive*%
%FSLAX45Y45*%
G04 Gerber Fmt 4.5, Leading zero omitted, Abs format (unit mm)*
G04 Created by KiCad (PCBNEW (6.0.10)) date 2023-03-31 21:51:58*
%MOMM*%
%LPD*%
G01*
G04 APERTURE LIST*
%ADD10C,0.100000*%
%ADD11C,0.200000*%
%ADD12C,0.040000*%
%ADD13C,0.080000*%
%ADD14C,0.110000*%
G04 APERTURE END LIST*
D10*
X10580000Y-5450000D02*
X10850000Y-5450000D01*
X10850000Y-4550000D02*
X16805000Y-4550000D01*
X10850000Y-4550000D02*
X10850000Y-5450000D01*
X10580000Y-4550000D02*
X10580000Y-5450000D01*
X9455000Y-4550000D02*
X10580000Y-4550000D01*
X8366748Y-11300000D02*
X17866749Y-11300000D01*
X8366748Y-5450000D02*
X9455000Y-5450000D01*
X16805000Y-5450000D02*
X17866749Y-5450000D01*
X16805000Y-4550000D02*
X16805000Y-5450000D01*
X9455000Y-4550000D02*
X9455000Y-5450000D01*
X8366748Y-5450000D02*
X8366748Y-11300000D01*
X17866749Y-5450000D02*
X17866749Y-11300000D01*
D11*
D12*
X9450150Y-6844130D02*
X9490150Y-6884130D01*
X9490150Y-6844130D02*
X9450150Y-6884130D01*
X9983050Y-6182750D02*
X10023050Y-6222750D01*
X10023050Y-6182750D02*
X9983050Y-6222750D01*
X10130000Y-6000000D02*
X10170000Y-6040000D01*
X10170000Y-6000000D02*
X10130000Y-6040000D01*
X10503120Y-9806880D02*
X10543120Y-9846880D01*
X10543120Y-9806880D02*
X10503120Y-9846880D01*
X10575770Y-9995770D02*
X10615770Y-10035770D01*
X10615770Y-9995770D02*
X10575770Y-10035770D01*
X10579520Y-6840090D02*
X10619520Y-6880090D01*
X10619520Y-6840090D02*
X10579520Y-6880090D01*
X10652520Y-9497920D02*
X10692520Y-9537920D01*
X10692520Y-9497920D02*
X10652520Y-9537920D01*
X11263760Y-6063540D02*
X11303760Y-6103540D01*
X11303760Y-6063540D02*
X11263760Y-6103540D01*
X11349150Y-7410480D02*
X11389150Y-7450480D01*
X11389150Y-7410480D02*
X11349150Y-7450480D01*
X11404800Y-5684800D02*
X11444800Y-5724800D01*
X11444800Y-5684800D02*
X11404800Y-5724800D01*
X11411980Y-10095970D02*
X11451980Y-10135970D01*
X11451980Y-10095970D02*
X11411980Y-10135970D01*
X11444100Y-9800000D02*
X11484100Y-9840000D01*
X11484100Y-9800000D02*
X11444100Y-9840000D01*
X11460000Y-5510000D02*
X11500000Y-5550000D01*
X11500000Y-5510000D02*
X11460000Y-5550000D01*
X11540330Y-9599540D02*
X11580330Y-9639540D01*
X11580330Y-9599540D02*
X11540330Y-9639540D01*
X11603000Y-7951830D02*
X11643000Y-7991830D01*
X11643000Y-7951830D02*
X11603000Y-7991830D01*
X11787610Y-5647610D02*
X11827610Y-5687610D01*
X11827610Y-5647610D02*
X11787610Y-5687610D01*
X11854680Y-9312740D02*
X11894680Y-9352740D01*
X11894680Y-9312740D02*
X11854680Y-9352740D01*
X11982860Y-6128180D02*
X12022860Y-6168180D01*
X12022860Y-6128180D02*
X11982860Y-6168180D01*
X12127640Y-9262690D02*
X12167640Y-9302690D01*
X12167640Y-9262690D02*
X12127640Y-9302690D01*
X12241230Y-5748770D02*
X12281230Y-5788770D01*
X12281230Y-5748770D02*
X12241230Y-5788770D01*
X12314730Y-8950170D02*
X12354730Y-8990170D01*
X12354730Y-8950170D02*
X12314730Y-8990170D01*
X12365000Y-7533240D02*
X12405000Y-7573240D01*
X12405000Y-7533240D02*
X12365000Y-7573240D01*
X12548590Y-5671510D02*
X12588590Y-5711510D01*
X12588590Y-5671510D02*
X12548590Y-5711510D01*
X12609530Y-6179100D02*
X12649530Y-6219100D01*
X12649530Y-6179100D02*
X12609530Y-6219100D01*
X12770000Y-9580000D02*
X12810000Y-9620000D01*
X12810000Y-9580000D02*
X12770000Y-9620000D01*
X13490000Y-5630000D02*
X13530000Y-5670000D01*
X13530000Y-5630000D02*
X13490000Y-5670000D01*
X13568550Y-6315000D02*
X13608550Y-6355000D01*
X13608550Y-6315000D02*
X13568550Y-6355000D01*
X13702920Y-7934410D02*
X13742920Y-7974410D01*
X13742920Y-7934410D02*
X13702920Y-7974410D01*
X14175750Y-7580900D02*
X14215750Y-7620900D01*
X14215750Y-7580900D02*
X14175750Y-7620900D01*
X14589860Y-6608760D02*
X14629860Y-6648760D01*
X14629860Y-6608760D02*
X14589860Y-6648760D01*
X14705570Y-9718350D02*
X14745570Y-9758350D01*
X14745570Y-9718350D02*
X14705570Y-9758350D01*
X14731190Y-5762350D02*
X14771190Y-5802350D01*
X14771190Y-5762350D02*
X14731190Y-5802350D01*
X14731190Y-6037570D02*
X14771190Y-6077570D01*
X14771190Y-6037570D02*
X14731190Y-6077570D01*
X14778730Y-6892770D02*
X14818730Y-6932770D01*
X14818730Y-6892770D02*
X14778730Y-6932770D01*
X14966780Y-8400870D02*
X15006780Y-8440870D01*
X15006780Y-8400870D02*
X14966780Y-8440870D01*
X15160000Y-6130000D02*
X15200000Y-6170000D01*
X15200000Y-6130000D02*
X15160000Y-6170000D01*
X15256760Y-6682400D02*
X15296760Y-6722400D01*
X15296760Y-6682400D02*
X15256760Y-6722400D01*
X15521570Y-8175480D02*
X15561570Y-8215480D01*
X15561570Y-8175480D02*
X15521570Y-8215480D01*
X15641050Y-10050000D02*
X15681050Y-10090000D01*
X15681050Y-10050000D02*
X15641050Y-10090000D01*
D13*
X9875000Y-7190000D02*
G75*
G03*
X9875000Y-7190000I-40000J0D01*
G01*
X9875000Y-8206000D02*
G75*
G03*
X9875000Y-8206000I-40000J0D01*
G01*
X9965000Y-8448000D02*
G75*
G03*
X9965000Y-8448000I-40000J0D01*
G01*
X9965000Y-9210000D02*
G75*
G03*
X9965000Y-9210000I-40000J0D01*
G01*
X10219000Y-8448000D02*
G75*
G03*
X10219000Y-8448000I-40000J0D01*
G01*
X10219000Y-9210000D02*
G75*
G03*
X10219000Y-9210000I-40000J0D01*
G01*
X10305000Y-7190000D02*
G75*
G03*
X10305000Y-7190000I-40000J0D01*
G01*
X10305000Y-8206000D02*
G75*
G03*
X10305000Y-8206000I-40000J0D01*
G01*
X10960000Y-7520000D02*
G75*
G03*
X10960000Y-7520000I-40000J0D01*
G01*
X10960000Y-8020000D02*
G75*
G03*
X10960000Y-8020000I-40000J0D01*
G01*
X11663000Y-7057500D02*
G75*
G03*
X11663000Y-7057500I-40000J0D01*
G01*
X11663000Y-8581500D02*
G75*
G03*
X11663000Y-8581500I-40000J0D01*
G01*
X11917000Y-7057500D02*
G75*
G03*
X11917000Y-7057500I-40000J0D01*
G01*
X11917000Y-8581500D02*
G75*
G03*
X11917000Y-8581500I-40000J0D01*
G01*
X12171000Y-7057500D02*
G75*
G03*
X12171000Y-7057500I-40000J0D01*
G01*
X12171000Y-8581500D02*
G75*
G03*
X12171000Y-8581500I-40000J0D01*
G01*
X12425000Y-7057500D02*
G75*
G03*
X12425000Y-7057500I-40000J0D01*
G01*
X12425000Y-8581500D02*
G75*
G03*
X12425000Y-8581500I-40000J0D01*
G01*
X12679000Y-7057500D02*
G75*
G03*
X12679000Y-7057500I-40000J0D01*
G01*
X12679000Y-8581500D02*
G75*
G03*
X12679000Y-8581500I-40000J0D01*
G01*
X12933000Y-7057500D02*
G75*
G03*
X12933000Y-7057500I-40000J0D01*
G01*
X12933000Y-8581500D02*
G75*
G03*
X12933000Y-8581500I-40000J0D01*
G01*
X13187000Y-7057500D02*
G75*
G03*
X13187000Y-7057500I-40000J0D01*
G01*
X13187000Y-8581500D02*
G75*
G03*
X13187000Y-8581500I-40000J0D01*
G01*
X13441000Y-7057500D02*
G75*
G03*
X13441000Y-7057500I-40000J0D01*
G01*
X13441000Y-8581500D02*
G75*
G03*
X13441000Y-8581500I-40000J0D01*
G01*
X13695000Y-7057500D02*
G75*
G03*
X13695000Y-7057500I-40000J0D01*
G01*
X13695000Y-8581500D02*
G75*
G03*
X13695000Y-8581500I-40000J0D01*
G01*
X13949000Y-7057500D02*
G75*
G03*
X13949000Y-7057500I-40000J0D01*
G01*
X13949000Y-8581500D02*
G75*
G03*
X13949000Y-8581500I-40000J0D01*
G01*
X14203000Y-7057500D02*
G75*
G03*
X14203000Y-7057500I-40000J0D01*
G01*
X14203000Y-8581500D02*
G75*
G03*
X14203000Y-8581500I-40000J0D01*
G01*
X14457000Y-7057500D02*
G75*
G03*
X14457000Y-7057500I-40000J0D01*
G01*
X14457000Y-8581500D02*
G75*
G03*
X14457000Y-8581500I-40000J0D01*
G01*
X14711000Y-7057500D02*
G75*
G03*
X14711000Y-7057500I-40000J0D01*
G01*
X14711000Y-8581500D02*
G75*
G03*
X14711000Y-8581500I-40000J0D01*
G01*
X14965000Y-7057500D02*
G75*
G03*
X14965000Y-7057500I-40000J0D01*
G01*
X14965000Y-8581500D02*
G75*
G03*
X14965000Y-8581500I-40000J0D01*
G01*
X15470000Y-7292000D02*
G75*
G03*
X15470000Y-7292000I-40000J0D01*
G01*
X15470000Y-8308000D02*
G75*
G03*
X15470000Y-8308000I-40000J0D01*
G01*
X15980000Y-6967500D02*
G75*
G03*
X15980000Y-6967500I-40000J0D01*
G01*
X15980000Y-7221500D02*
G75*
G03*
X15980000Y-7221500I-40000J0D01*
G01*
X15980000Y-7475500D02*
G75*
G03*
X15980000Y-7475500I-40000J0D01*
G01*
X15980000Y-7729500D02*
G75*
G03*
X15980000Y-7729500I-40000J0D01*
G01*
X15980000Y-7983500D02*
G75*
G03*
X15980000Y-7983500I-40000J0D01*
G01*
X15980000Y-8237500D02*
G75*
G03*
X15980000Y-8237500I-40000J0D01*
G01*
X15980000Y-8491500D02*
G75*
G03*
X15980000Y-8491500I-40000J0D01*
G01*
X16120000Y-9010000D02*
G75*
G03*
X16120000Y-9010000I-40000J0D01*
G01*
X16620000Y-9010000D02*
G75*
G03*
X16620000Y-9010000I-40000J0D01*
G01*
X16742000Y-6967500D02*
G75*
G03*
X16742000Y-6967500I-40000J0D01*
G01*
X16742000Y-7221500D02*
G75*
G03*
X16742000Y-7221500I-40000J0D01*
G01*
X16742000Y-7475500D02*
G75*
G03*
X16742000Y-7475500I-40000J0D01*
G01*
X16742000Y-7729500D02*
G75*
G03*
X16742000Y-7729500I-40000J0D01*
G01*
X16742000Y-7983500D02*
G75*
G03*
X16742000Y-7983500I-40000J0D01*
G01*
X16742000Y-8237500D02*
G75*
G03*
X16742000Y-8237500I-40000J0D01*
G01*
X16742000Y-8491500D02*
G75*
G03*
X16742000Y-8491500I-40000J0D01*
G01*
D14*
X9725000Y-6280000D02*
X9725000Y-6390000D01*
X9670000Y-6335000D02*
X9780000Y-6335000D01*
X9725000Y-6730000D02*
X9725000Y-6840000D01*
X9670000Y-6785000D02*
X9780000Y-6785000D01*
X10375000Y-6280000D02*
X10375000Y-6390000D01*
X10320000Y-6335000D02*
X10430000Y-6335000D01*
X10375000Y-6730000D02*
X10375000Y-6840000D01*
X10320000Y-6785000D02*
X10430000Y-6785000D01*
D11*
X8619368Y-11615476D02*
X8619368Y-11415476D01*
X8666987Y-11415476D01*
X8695558Y-11425000D01*
X8714606Y-11444048D01*
X8724129Y-11463095D01*
X8733653Y-11501190D01*
X8733653Y-11529762D01*
X8724129Y-11567857D01*
X8714606Y-11586905D01*
X8695558Y-11605952D01*
X8666987Y-11615476D01*
X8619368Y-11615476D01*
X8819368Y-11615476D02*
X8819368Y-11482143D01*
X8819368Y-11520238D02*
X8828891Y-11501190D01*
X8838415Y-11491667D01*
X8857463Y-11482143D01*
X8876510Y-11482143D01*
X8943177Y-11615476D02*
X8943177Y-11482143D01*
X8943177Y-11415476D02*
X8933653Y-11425000D01*
X8943177Y-11434524D01*
X8952701Y-11425000D01*
X8943177Y-11415476D01*
X8943177Y-11434524D01*
X9066987Y-11615476D02*
X9047939Y-11605952D01*
X9038415Y-11586905D01*
X9038415Y-11415476D01*
X9171749Y-11615476D02*
X9152701Y-11605952D01*
X9143177Y-11586905D01*
X9143177Y-11415476D01*
X9400320Y-11615476D02*
X9400320Y-11415476D01*
X9466987Y-11558333D01*
X9533653Y-11415476D01*
X9533653Y-11615476D01*
X9714606Y-11615476D02*
X9714606Y-11510714D01*
X9705082Y-11491667D01*
X9686034Y-11482143D01*
X9647939Y-11482143D01*
X9628891Y-11491667D01*
X9714606Y-11605952D02*
X9695558Y-11615476D01*
X9647939Y-11615476D01*
X9628891Y-11605952D01*
X9619368Y-11586905D01*
X9619368Y-11567857D01*
X9628891Y-11548809D01*
X9647939Y-11539286D01*
X9695558Y-11539286D01*
X9714606Y-11529762D01*
X9809844Y-11482143D02*
X9809844Y-11682143D01*
X9809844Y-11491667D02*
X9828891Y-11482143D01*
X9866987Y-11482143D01*
X9886034Y-11491667D01*
X9895558Y-11501190D01*
X9905082Y-11520238D01*
X9905082Y-11577381D01*
X9895558Y-11596428D01*
X9886034Y-11605952D01*
X9866987Y-11615476D01*
X9828891Y-11615476D01*
X9809844Y-11605952D01*
X9990796Y-11596428D02*
X10000320Y-11605952D01*
X9990796Y-11615476D01*
X9981272Y-11605952D01*
X9990796Y-11596428D01*
X9990796Y-11615476D01*
X9990796Y-11491667D02*
X10000320Y-11501190D01*
X9990796Y-11510714D01*
X9981272Y-11501190D01*
X9990796Y-11491667D01*
X9990796Y-11510714D01*
D12*
X8321748Y-11925000D02*
X8361748Y-11965000D01*
X8361748Y-11925000D02*
X8321748Y-11965000D01*
D11*
X8657463Y-11835476D02*
X8676510Y-11835476D01*
X8695558Y-11845000D01*
X8705082Y-11854524D01*
X8714606Y-11873571D01*
X8724129Y-11911667D01*
X8724129Y-11959286D01*
X8714606Y-11997381D01*
X8705082Y-12016428D01*
X8695558Y-12025952D01*
X8676510Y-12035476D01*
X8657463Y-12035476D01*
X8638415Y-12025952D01*
X8628891Y-12016428D01*
X8619368Y-11997381D01*
X8609844Y-11959286D01*
X8609844Y-11911667D01*
X8619368Y-11873571D01*
X8628891Y-11854524D01*
X8638415Y-11845000D01*
X8657463Y-11835476D01*
X8809844Y-12016428D02*
X8819368Y-12025952D01*
X8809844Y-12035476D01*
X8800320Y-12025952D01*
X8809844Y-12016428D01*
X8809844Y-12035476D01*
X8990796Y-11902143D02*
X8990796Y-12035476D01*
X8943177Y-11825952D02*
X8895558Y-11968809D01*
X9019368Y-11968809D01*
X9133653Y-11835476D02*
X9152701Y-11835476D01*
X9171749Y-11845000D01*
X9181272Y-11854524D01*
X9190796Y-11873571D01*
X9200320Y-11911667D01*
X9200320Y-11959286D01*
X9190796Y-11997381D01*
X9181272Y-12016428D01*
X9171749Y-12025952D01*
X9152701Y-12035476D01*
X9133653Y-12035476D01*
X9114606Y-12025952D01*
X9105082Y-12016428D01*
X9095558Y-11997381D01*
X9086034Y-11959286D01*
X9086034Y-11911667D01*
X9095558Y-11873571D01*
X9105082Y-11854524D01*
X9114606Y-11845000D01*
X9133653Y-11835476D01*
X9324129Y-11835476D02*
X9343177Y-11835476D01*
X9362225Y-11845000D01*
X9371749Y-11854524D01*
X9381272Y-11873571D01*
X9390796Y-11911667D01*
X9390796Y-11959286D01*
X9381272Y-11997381D01*
X9371749Y-12016428D01*
X9362225Y-12025952D01*
X9343177Y-12035476D01*
X9324129Y-12035476D01*
X9305082Y-12025952D01*
X9295558Y-12016428D01*
X9286034Y-11997381D01*
X9276510Y-11959286D01*
X9276510Y-11911667D01*
X9286034Y-11873571D01*
X9295558Y-11854524D01*
X9305082Y-11845000D01*
X9324129Y-11835476D01*
X9476510Y-12035476D02*
X9476510Y-11902143D01*
X9476510Y-11921190D02*
X9486034Y-11911667D01*
X9505082Y-11902143D01*
X9533653Y-11902143D01*
X9552701Y-11911667D01*
X9562225Y-11930714D01*
X9562225Y-12035476D01*
X9562225Y-11930714D02*
X9571749Y-11911667D01*
X9590796Y-11902143D01*
X9619368Y-11902143D01*
X9638415Y-11911667D01*
X9647939Y-11930714D01*
X9647939Y-12035476D01*
X9743177Y-12035476D02*
X9743177Y-11902143D01*
X9743177Y-11921190D02*
X9752701Y-11911667D01*
X9771749Y-11902143D01*
X9800320Y-11902143D01*
X9819368Y-11911667D01*
X9828891Y-11930714D01*
X9828891Y-12035476D01*
X9828891Y-11930714D02*
X9838415Y-11911667D01*
X9857463Y-11902143D01*
X9886034Y-11902143D01*
X9905082Y-11911667D01*
X9914606Y-11930714D01*
X9914606Y-12035476D01*
X10305082Y-11825952D02*
X10133653Y-12083095D01*
X10562225Y-11835476D02*
X10581272Y-11835476D01*
X10600320Y-11845000D01*
X10609844Y-11854524D01*
X10619368Y-11873571D01*
X10628891Y-11911667D01*
X10628891Y-11959286D01*
X10619368Y-11997381D01*
X10609844Y-12016428D01*
X10600320Y-12025952D01*
X10581272Y-12035476D01*
X10562225Y-12035476D01*
X10543177Y-12025952D01*
X10533653Y-12016428D01*
X10524129Y-11997381D01*
X10514606Y-11959286D01*
X10514606Y-11911667D01*
X10524129Y-11873571D01*
X10533653Y-11854524D01*
X10543177Y-11845000D01*
X10562225Y-11835476D01*
X10714606Y-12016428D02*
X10724129Y-12025952D01*
X10714606Y-12035476D01*
X10705082Y-12025952D01*
X10714606Y-12016428D01*
X10714606Y-12035476D01*
X10847939Y-11835476D02*
X10866987Y-11835476D01*
X10886034Y-11845000D01*
X10895558Y-11854524D01*
X10905082Y-11873571D01*
X10914606Y-11911667D01*
X10914606Y-11959286D01*
X10905082Y-11997381D01*
X10895558Y-12016428D01*
X10886034Y-12025952D01*
X10866987Y-12035476D01*
X10847939Y-12035476D01*
X10828891Y-12025952D01*
X10819368Y-12016428D01*
X10809844Y-11997381D01*
X10800320Y-11959286D01*
X10800320Y-11911667D01*
X10809844Y-11873571D01*
X10819368Y-11854524D01*
X10828891Y-11845000D01*
X10847939Y-11835476D01*
X11105082Y-12035476D02*
X10990796Y-12035476D01*
X11047939Y-12035476D02*
X11047939Y-11835476D01*
X11028891Y-11864048D01*
X11009844Y-11883095D01*
X10990796Y-11892619D01*
X11286034Y-11835476D02*
X11190796Y-11835476D01*
X11181272Y-11930714D01*
X11190796Y-11921190D01*
X11209844Y-11911667D01*
X11257463Y-11911667D01*
X11276510Y-11921190D01*
X11286034Y-11930714D01*
X11295558Y-11949762D01*
X11295558Y-11997381D01*
X11286034Y-12016428D01*
X11276510Y-12025952D01*
X11257463Y-12035476D01*
X11209844Y-12035476D01*
X11190796Y-12025952D01*
X11181272Y-12016428D01*
X11362225Y-11835476D02*
X11495558Y-11835476D01*
X11409844Y-12035476D01*
X11562225Y-11835476D02*
X11562225Y-11873571D01*
X11638415Y-11835476D02*
X11638415Y-11873571D01*
X11933653Y-12111667D02*
X11924129Y-12102143D01*
X11905082Y-12073571D01*
X11895558Y-12054524D01*
X11886034Y-12025952D01*
X11876510Y-11978333D01*
X11876510Y-11940238D01*
X11886034Y-11892619D01*
X11895558Y-11864048D01*
X11905082Y-11845000D01*
X11924129Y-11816428D01*
X11933653Y-11806905D01*
X11990796Y-11835476D02*
X12114606Y-11835476D01*
X12047939Y-11911667D01*
X12076510Y-11911667D01*
X12095558Y-11921190D01*
X12105082Y-11930714D01*
X12114606Y-11949762D01*
X12114606Y-11997381D01*
X12105082Y-12016428D01*
X12095558Y-12025952D01*
X12076510Y-12035476D01*
X12019367Y-12035476D01*
X12000320Y-12025952D01*
X11990796Y-12016428D01*
X12209844Y-12035476D02*
X12247939Y-12035476D01*
X12266986Y-12025952D01*
X12276510Y-12016428D01*
X12295558Y-11987857D01*
X12305082Y-11949762D01*
X12305082Y-11873571D01*
X12295558Y-11854524D01*
X12286034Y-11845000D01*
X12266986Y-11835476D01*
X12228891Y-11835476D01*
X12209844Y-11845000D01*
X12200320Y-11854524D01*
X12190796Y-11873571D01*
X12190796Y-11921190D01*
X12200320Y-11940238D01*
X12209844Y-11949762D01*
X12228891Y-11959286D01*
X12266986Y-11959286D01*
X12286034Y-11949762D01*
X12295558Y-11940238D01*
X12305082Y-11921190D01*
X12543177Y-12035476D02*
X12543177Y-11835476D01*
X12628891Y-12035476D02*
X12628891Y-11930714D01*
X12619367Y-11911667D01*
X12600320Y-11902143D01*
X12571748Y-11902143D01*
X12552701Y-11911667D01*
X12543177Y-11921190D01*
X12752701Y-12035476D02*
X12733653Y-12025952D01*
X12724129Y-12016428D01*
X12714606Y-11997381D01*
X12714606Y-11940238D01*
X12724129Y-11921190D01*
X12733653Y-11911667D01*
X12752701Y-11902143D01*
X12781272Y-11902143D01*
X12800320Y-11911667D01*
X12809844Y-11921190D01*
X12819367Y-11940238D01*
X12819367Y-11997381D01*
X12809844Y-12016428D01*
X12800320Y-12025952D01*
X12781272Y-12035476D01*
X12752701Y-12035476D01*
X12933653Y-12035476D02*
X12914606Y-12025952D01*
X12905082Y-12006905D01*
X12905082Y-11835476D01*
X13086034Y-12025952D02*
X13066986Y-12035476D01*
X13028891Y-12035476D01*
X13009844Y-12025952D01*
X13000320Y-12006905D01*
X13000320Y-11930714D01*
X13009844Y-11911667D01*
X13028891Y-11902143D01*
X13066986Y-11902143D01*
X13086034Y-11911667D01*
X13095558Y-11930714D01*
X13095558Y-11949762D01*
X13000320Y-11968809D01*
X13171748Y-12025952D02*
X13190796Y-12035476D01*
X13228891Y-12035476D01*
X13247939Y-12025952D01*
X13257463Y-12006905D01*
X13257463Y-11997381D01*
X13247939Y-11978333D01*
X13228891Y-11968809D01*
X13200320Y-11968809D01*
X13181272Y-11959286D01*
X13171748Y-11940238D01*
X13171748Y-11930714D01*
X13181272Y-11911667D01*
X13200320Y-11902143D01*
X13228891Y-11902143D01*
X13247939Y-11911667D01*
X13324129Y-12111667D02*
X13333653Y-12102143D01*
X13352701Y-12073571D01*
X13362225Y-12054524D01*
X13371748Y-12025952D01*
X13381272Y-11978333D01*
X13381272Y-11940238D01*
X13371748Y-11892619D01*
X13362225Y-11864048D01*
X13352701Y-11845000D01*
X13333653Y-11816428D01*
X13324129Y-11806905D01*
D13*
X8361748Y-12209000D02*
G75*
G03*
X8361748Y-12209000I-40000J0D01*
G01*
D11*
X8657463Y-12099476D02*
X8676510Y-12099476D01*
X8695558Y-12109000D01*
X8705082Y-12118524D01*
X8714606Y-12137571D01*
X8724129Y-12175667D01*
X8724129Y-12223286D01*
X8714606Y-12261381D01*
X8705082Y-12280428D01*
X8695558Y-12289952D01*
X8676510Y-12299476D01*
X8657463Y-12299476D01*
X8638415Y-12289952D01*
X8628891Y-12280428D01*
X8619368Y-12261381D01*
X8609844Y-12223286D01*
X8609844Y-12175667D01*
X8619368Y-12137571D01*
X8628891Y-12118524D01*
X8638415Y-12109000D01*
X8657463Y-12099476D01*
X8809844Y-12280428D02*
X8819368Y-12289952D01*
X8809844Y-12299476D01*
X8800320Y-12289952D01*
X8809844Y-12280428D01*
X8809844Y-12299476D01*
X8933653Y-12185190D02*
X8914606Y-12175667D01*
X8905082Y-12166143D01*
X8895558Y-12147095D01*
X8895558Y-12137571D01*
X8905082Y-12118524D01*
X8914606Y-12109000D01*
X8933653Y-12099476D01*
X8971749Y-12099476D01*
X8990796Y-12109000D01*
X9000320Y-12118524D01*
X9009844Y-12137571D01*
X9009844Y-12147095D01*
X9000320Y-12166143D01*
X8990796Y-12175667D01*
X8971749Y-12185190D01*
X8933653Y-12185190D01*
X8914606Y-12194714D01*
X8905082Y-12204238D01*
X8895558Y-12223286D01*
X8895558Y-12261381D01*
X8905082Y-12280428D01*
X8914606Y-12289952D01*
X8933653Y-12299476D01*
X8971749Y-12299476D01*
X8990796Y-12289952D01*
X9000320Y-12280428D01*
X9009844Y-12261381D01*
X9009844Y-12223286D01*
X9000320Y-12204238D01*
X8990796Y-12194714D01*
X8971749Y-12185190D01*
X9133653Y-12099476D02*
X9152701Y-12099476D01*
X9171749Y-12109000D01*
X9181272Y-12118524D01*
X9190796Y-12137571D01*
X9200320Y-12175667D01*
X9200320Y-12223286D01*
X9190796Y-12261381D01*
X9181272Y-12280428D01*
X9171749Y-12289952D01*
X9152701Y-12299476D01*
X9133653Y-12299476D01*
X9114606Y-12289952D01*
X9105082Y-12280428D01*
X9095558Y-12261381D01*
X9086034Y-12223286D01*
X9086034Y-12175667D01*
X9095558Y-12137571D01*
X9105082Y-12118524D01*
X9114606Y-12109000D01*
X9133653Y-12099476D01*
X9324129Y-12099476D02*
X9343177Y-12099476D01*
X9362225Y-12109000D01*
X9371749Y-12118524D01*
X9381272Y-12137571D01*
X9390796Y-12175667D01*
X9390796Y-12223286D01*
X9381272Y-12261381D01*
X9371749Y-12280428D01*
X9362225Y-12289952D01*
X9343177Y-12299476D01*
X9324129Y-12299476D01*
X9305082Y-12289952D01*
X9295558Y-12280428D01*
X9286034Y-12261381D01*
X9276510Y-12223286D01*
X9276510Y-12175667D01*
X9286034Y-12137571D01*
X9295558Y-12118524D01*
X9305082Y-12109000D01*
X9324129Y-12099476D01*
X9476510Y-12299476D02*
X9476510Y-12166143D01*
X9476510Y-12185190D02*
X9486034Y-12175667D01*
X9505082Y-12166143D01*
X9533653Y-12166143D01*
X9552701Y-12175667D01*
X9562225Y-12194714D01*
X9562225Y-12299476D01*
X9562225Y-12194714D02*
X9571749Y-12175667D01*
X9590796Y-12166143D01*
X9619368Y-12166143D01*
X9638415Y-12175667D01*
X9647939Y-12194714D01*
X9647939Y-12299476D01*
X9743177Y-12299476D02*
X9743177Y-12166143D01*
X9743177Y-12185190D02*
X9752701Y-12175667D01*
X9771749Y-12166143D01*
X9800320Y-12166143D01*
X9819368Y-12175667D01*
X9828891Y-12194714D01*
X9828891Y-12299476D01*
X9828891Y-12194714D02*
X9838415Y-12175667D01*
X9857463Y-12166143D01*
X9886034Y-12166143D01*
X9905082Y-12175667D01*
X9914606Y-12194714D01*
X9914606Y-12299476D01*
X10305082Y-12089952D02*
X10133653Y-12347095D01*
X10562225Y-12099476D02*
X10581272Y-12099476D01*
X10600320Y-12109000D01*
X10609844Y-12118524D01*
X10619368Y-12137571D01*
X10628891Y-12175667D01*
X10628891Y-12223286D01*
X10619368Y-12261381D01*
X10609844Y-12280428D01*
X10600320Y-12289952D01*
X10581272Y-12299476D01*
X10562225Y-12299476D01*
X10543177Y-12289952D01*
X10533653Y-12280428D01*
X10524129Y-12261381D01*
X10514606Y-12223286D01*
X10514606Y-12175667D01*
X10524129Y-12137571D01*
X10533653Y-12118524D01*
X10543177Y-12109000D01*
X10562225Y-12099476D01*
X10714606Y-12280428D02*
X10724129Y-12289952D01*
X10714606Y-12299476D01*
X10705082Y-12289952D01*
X10714606Y-12280428D01*
X10714606Y-12299476D01*
X10847939Y-12099476D02*
X10866987Y-12099476D01*
X10886034Y-12109000D01*
X10895558Y-12118524D01*
X10905082Y-12137571D01*
X10914606Y-12175667D01*
X10914606Y-12223286D01*
X10905082Y-12261381D01*
X10895558Y-12280428D01*
X10886034Y-12289952D01*
X10866987Y-12299476D01*
X10847939Y-12299476D01*
X10828891Y-12289952D01*
X10819368Y-12280428D01*
X10809844Y-12261381D01*
X10800320Y-12223286D01*
X10800320Y-12175667D01*
X10809844Y-12137571D01*
X10819368Y-12118524D01*
X10828891Y-12109000D01*
X10847939Y-12099476D01*
X10981272Y-12099476D02*
X11105082Y-12099476D01*
X11038415Y-12175667D01*
X11066987Y-12175667D01*
X11086034Y-12185190D01*
X11095558Y-12194714D01*
X11105082Y-12213762D01*
X11105082Y-12261381D01*
X11095558Y-12280428D01*
X11086034Y-12289952D01*
X11066987Y-12299476D01*
X11009844Y-12299476D01*
X10990796Y-12289952D01*
X10981272Y-12280428D01*
X11295558Y-12299476D02*
X11181272Y-12299476D01*
X11238415Y-12299476D02*
X11238415Y-12099476D01*
X11219367Y-12128048D01*
X11200320Y-12147095D01*
X11181272Y-12156619D01*
X11476510Y-12099476D02*
X11381272Y-12099476D01*
X11371748Y-12194714D01*
X11381272Y-12185190D01*
X11400320Y-12175667D01*
X11447939Y-12175667D01*
X11466986Y-12185190D01*
X11476510Y-12194714D01*
X11486034Y-12213762D01*
X11486034Y-12261381D01*
X11476510Y-12280428D01*
X11466986Y-12289952D01*
X11447939Y-12299476D01*
X11400320Y-12299476D01*
X11381272Y-12289952D01*
X11371748Y-12280428D01*
X11562225Y-12099476D02*
X11562225Y-12137571D01*
X11638415Y-12099476D02*
X11638415Y-12137571D01*
X11933653Y-12375667D02*
X11924129Y-12366143D01*
X11905082Y-12337571D01*
X11895558Y-12318524D01*
X11886034Y-12289952D01*
X11876510Y-12242333D01*
X11876510Y-12204238D01*
X11886034Y-12156619D01*
X11895558Y-12128048D01*
X11905082Y-12109000D01*
X11924129Y-12080428D01*
X11933653Y-12070905D01*
X12105082Y-12099476D02*
X12009844Y-12099476D01*
X12000320Y-12194714D01*
X12009844Y-12185190D01*
X12028891Y-12175667D01*
X12076510Y-12175667D01*
X12095558Y-12185190D01*
X12105082Y-12194714D01*
X12114606Y-12213762D01*
X12114606Y-12261381D01*
X12105082Y-12280428D01*
X12095558Y-12289952D01*
X12076510Y-12299476D01*
X12028891Y-12299476D01*
X12009844Y-12289952D01*
X12000320Y-12280428D01*
X12286034Y-12099476D02*
X12247939Y-12099476D01*
X12228891Y-12109000D01*
X12219367Y-12118524D01*
X12200320Y-12147095D01*
X12190796Y-12185190D01*
X12190796Y-12261381D01*
X12200320Y-12280428D01*
X12209844Y-12289952D01*
X12228891Y-12299476D01*
X12266986Y-12299476D01*
X12286034Y-12289952D01*
X12295558Y-12280428D01*
X12305082Y-12261381D01*
X12305082Y-12213762D01*
X12295558Y-12194714D01*
X12286034Y-12185190D01*
X12266986Y-12175667D01*
X12228891Y-12175667D01*
X12209844Y-12185190D01*
X12200320Y-12194714D01*
X12190796Y-12213762D01*
X12543177Y-12299476D02*
X12543177Y-12099476D01*
X12628891Y-12299476D02*
X12628891Y-12194714D01*
X12619367Y-12175667D01*
X12600320Y-12166143D01*
X12571748Y-12166143D01*
X12552701Y-12175667D01*
X12543177Y-12185190D01*
X12752701Y-12299476D02*
X12733653Y-12289952D01*
X12724129Y-12280428D01*
X12714606Y-12261381D01*
X12714606Y-12204238D01*
X12724129Y-12185190D01*
X12733653Y-12175667D01*
X12752701Y-12166143D01*
X12781272Y-12166143D01*
X12800320Y-12175667D01*
X12809844Y-12185190D01*
X12819367Y-12204238D01*
X12819367Y-12261381D01*
X12809844Y-12280428D01*
X12800320Y-12289952D01*
X12781272Y-12299476D01*
X12752701Y-12299476D01*
X12933653Y-12299476D02*
X12914606Y-12289952D01*
X12905082Y-12270905D01*
X12905082Y-12099476D01*
X13086034Y-12289952D02*
X13066986Y-12299476D01*
X13028891Y-12299476D01*
X13009844Y-12289952D01*
X13000320Y-12270905D01*
X13000320Y-12194714D01*
X13009844Y-12175667D01*
X13028891Y-12166143D01*
X13066986Y-12166143D01*
X13086034Y-12175667D01*
X13095558Y-12194714D01*
X13095558Y-12213762D01*
X13000320Y-12232809D01*
X13171748Y-12289952D02*
X13190796Y-12299476D01*
X13228891Y-12299476D01*
X13247939Y-12289952D01*
X13257463Y-12270905D01*
X13257463Y-12261381D01*
X13247939Y-12242333D01*
X13228891Y-12232809D01*
X13200320Y-12232809D01*
X13181272Y-12223286D01*
X13171748Y-12204238D01*
X13171748Y-12194714D01*
X13181272Y-12175667D01*
X13200320Y-12166143D01*
X13228891Y-12166143D01*
X13247939Y-12175667D01*
X13324129Y-12375667D02*
X13333653Y-12366143D01*
X13352701Y-12337571D01*
X13362225Y-12318524D01*
X13371748Y-12289952D01*
X13381272Y-12242333D01*
X13381272Y-12204238D01*
X13371748Y-12156619D01*
X13362225Y-12128048D01*
X13352701Y-12109000D01*
X13333653Y-12080428D01*
X13324129Y-12070905D01*
D14*
X8306748Y-12418000D02*
X8306748Y-12528000D01*
X8251748Y-12473000D02*
X8361748Y-12473000D01*
D11*
X8724129Y-12563476D02*
X8609844Y-12563476D01*
X8666987Y-12563476D02*
X8666987Y-12363476D01*
X8647939Y-12392048D01*
X8628891Y-12411095D01*
X8609844Y-12420619D01*
X8809844Y-12544428D02*
X8819368Y-12553952D01*
X8809844Y-12563476D01*
X8800320Y-12553952D01*
X8809844Y-12544428D01*
X8809844Y-12563476D01*
X9009844Y-12563476D02*
X8895558Y-12563476D01*
X8952701Y-12563476D02*
X8952701Y-12363476D01*
X8933653Y-12392048D01*
X8914606Y-12411095D01*
X8895558Y-12420619D01*
X9133653Y-12363476D02*
X9152701Y-12363476D01*
X9171749Y-12373000D01*
X9181272Y-12382524D01*
X9190796Y-12401571D01*
X9200320Y-12439667D01*
X9200320Y-12487286D01*
X9190796Y-12525381D01*
X9181272Y-12544428D01*
X9171749Y-12553952D01*
X9152701Y-12563476D01*
X9133653Y-12563476D01*
X9114606Y-12553952D01*
X9105082Y-12544428D01*
X9095558Y-12525381D01*
X9086034Y-12487286D01*
X9086034Y-12439667D01*
X9095558Y-12401571D01*
X9105082Y-12382524D01*
X9114606Y-12373000D01*
X9133653Y-12363476D01*
X9324129Y-12363476D02*
X9343177Y-12363476D01*
X9362225Y-12373000D01*
X9371749Y-12382524D01*
X9381272Y-12401571D01*
X9390796Y-12439667D01*
X9390796Y-12487286D01*
X9381272Y-12525381D01*
X9371749Y-12544428D01*
X9362225Y-12553952D01*
X9343177Y-12563476D01*
X9324129Y-12563476D01*
X9305082Y-12553952D01*
X9295558Y-12544428D01*
X9286034Y-12525381D01*
X9276510Y-12487286D01*
X9276510Y-12439667D01*
X9286034Y-12401571D01*
X9295558Y-12382524D01*
X9305082Y-12373000D01*
X9324129Y-12363476D01*
X9476510Y-12563476D02*
X9476510Y-12430143D01*
X9476510Y-12449190D02*
X9486034Y-12439667D01*
X9505082Y-12430143D01*
X9533653Y-12430143D01*
X9552701Y-12439667D01*
X9562225Y-12458714D01*
X9562225Y-12563476D01*
X9562225Y-12458714D02*
X9571749Y-12439667D01*
X9590796Y-12430143D01*
X9619368Y-12430143D01*
X9638415Y-12439667D01*
X9647939Y-12458714D01*
X9647939Y-12563476D01*
X9743177Y-12563476D02*
X9743177Y-12430143D01*
X9743177Y-12449190D02*
X9752701Y-12439667D01*
X9771749Y-12430143D01*
X9800320Y-12430143D01*
X9819368Y-12439667D01*
X9828891Y-12458714D01*
X9828891Y-12563476D01*
X9828891Y-12458714D02*
X9838415Y-12439667D01*
X9857463Y-12430143D01*
X9886034Y-12430143D01*
X9905082Y-12439667D01*
X9914606Y-12458714D01*
X9914606Y-12563476D01*
X10305082Y-12353952D02*
X10133653Y-12611095D01*
X10562225Y-12363476D02*
X10581272Y-12363476D01*
X10600320Y-12373000D01*
X10609844Y-12382524D01*
X10619368Y-12401571D01*
X10628891Y-12439667D01*
X10628891Y-12487286D01*
X10619368Y-12525381D01*
X10609844Y-12544428D01*
X10600320Y-12553952D01*
X10581272Y-12563476D01*
X10562225Y-12563476D01*
X10543177Y-12553952D01*
X10533653Y-12544428D01*
X10524129Y-12525381D01*
X10514606Y-12487286D01*
X10514606Y-12439667D01*
X10524129Y-12401571D01*
X10533653Y-12382524D01*
X10543177Y-12373000D01*
X10562225Y-12363476D01*
X10714606Y-12544428D02*
X10724129Y-12553952D01*
X10714606Y-12563476D01*
X10705082Y-12553952D01*
X10714606Y-12544428D01*
X10714606Y-12563476D01*
X10847939Y-12363476D02*
X10866987Y-12363476D01*
X10886034Y-12373000D01*
X10895558Y-12382524D01*
X10905082Y-12401571D01*
X10914606Y-12439667D01*
X10914606Y-12487286D01*
X10905082Y-12525381D01*
X10895558Y-12544428D01*
X10886034Y-12553952D01*
X10866987Y-12563476D01*
X10847939Y-12563476D01*
X10828891Y-12553952D01*
X10819368Y-12544428D01*
X10809844Y-12525381D01*
X10800320Y-12487286D01*
X10800320Y-12439667D01*
X10809844Y-12401571D01*
X10819368Y-12382524D01*
X10828891Y-12373000D01*
X10847939Y-12363476D01*
X11086034Y-12430143D02*
X11086034Y-12563476D01*
X11038415Y-12353952D02*
X10990796Y-12496809D01*
X11114606Y-12496809D01*
X11171749Y-12363476D02*
X11295558Y-12363476D01*
X11228891Y-12439667D01*
X11257463Y-12439667D01*
X11276510Y-12449190D01*
X11286034Y-12458714D01*
X11295558Y-12477762D01*
X11295558Y-12525381D01*
X11286034Y-12544428D01*
X11276510Y-12553952D01*
X11257463Y-12563476D01*
X11200320Y-12563476D01*
X11181272Y-12553952D01*
X11171749Y-12544428D01*
X11362225Y-12363476D02*
X11486034Y-12363476D01*
X11419367Y-12439667D01*
X11447939Y-12439667D01*
X11466986Y-12449190D01*
X11476510Y-12458714D01*
X11486034Y-12477762D01*
X11486034Y-12525381D01*
X11476510Y-12544428D01*
X11466986Y-12553952D01*
X11447939Y-12563476D01*
X11390796Y-12563476D01*
X11371748Y-12553952D01*
X11362225Y-12544428D01*
X11562225Y-12363476D02*
X11562225Y-12401571D01*
X11638415Y-12363476D02*
X11638415Y-12401571D01*
X11933653Y-12639667D02*
X11924129Y-12630143D01*
X11905082Y-12601571D01*
X11895558Y-12582524D01*
X11886034Y-12553952D01*
X11876510Y-12506333D01*
X11876510Y-12468238D01*
X11886034Y-12420619D01*
X11895558Y-12392048D01*
X11905082Y-12373000D01*
X11924129Y-12344428D01*
X11933653Y-12334905D01*
X12095558Y-12430143D02*
X12095558Y-12563476D01*
X12047939Y-12353952D02*
X12000320Y-12496809D01*
X12124129Y-12496809D01*
X12352701Y-12563476D02*
X12352701Y-12363476D01*
X12438415Y-12563476D02*
X12438415Y-12458714D01*
X12428891Y-12439667D01*
X12409844Y-12430143D01*
X12381272Y-12430143D01*
X12362225Y-12439667D01*
X12352701Y-12449190D01*
X12562225Y-12563476D02*
X12543177Y-12553952D01*
X12533653Y-12544428D01*
X12524129Y-12525381D01*
X12524129Y-12468238D01*
X12533653Y-12449190D01*
X12543177Y-12439667D01*
X12562225Y-12430143D01*
X12590796Y-12430143D01*
X12609844Y-12439667D01*
X12619367Y-12449190D01*
X12628891Y-12468238D01*
X12628891Y-12525381D01*
X12619367Y-12544428D01*
X12609844Y-12553952D01*
X12590796Y-12563476D01*
X12562225Y-12563476D01*
X12743177Y-12563476D02*
X12724129Y-12553952D01*
X12714606Y-12534905D01*
X12714606Y-12363476D01*
X12895558Y-12553952D02*
X12876510Y-12563476D01*
X12838415Y-12563476D01*
X12819367Y-12553952D01*
X12809844Y-12534905D01*
X12809844Y-12458714D01*
X12819367Y-12439667D01*
X12838415Y-12430143D01*
X12876510Y-12430143D01*
X12895558Y-12439667D01*
X12905082Y-12458714D01*
X12905082Y-12477762D01*
X12809844Y-12496809D01*
X12981272Y-12553952D02*
X13000320Y-12563476D01*
X13038415Y-12563476D01*
X13057463Y-12553952D01*
X13066986Y-12534905D01*
X13066986Y-12525381D01*
X13057463Y-12506333D01*
X13038415Y-12496809D01*
X13009844Y-12496809D01*
X12990796Y-12487286D01*
X12981272Y-12468238D01*
X12981272Y-12458714D01*
X12990796Y-12439667D01*
X13009844Y-12430143D01*
X13038415Y-12430143D01*
X13057463Y-12439667D01*
X13133653Y-12639667D02*
X13143177Y-12630143D01*
X13162225Y-12601571D01*
X13171748Y-12582524D01*
X13181272Y-12553952D01*
X13190796Y-12506333D01*
X13190796Y-12468238D01*
X13181272Y-12420619D01*
X13171748Y-12392048D01*
X13162225Y-12373000D01*
X13143177Y-12344428D01*
X13133653Y-12334905D01*
M02*
